<?xml version="1.0" encoding="utf-8"?>
<!-- Generator: Adobe Illustrator 29.8.2, SVG Export Plug-In . SVG Version: 9.03 Build 0)  -->
<svg version="1.0" id="Ebene_1" xmlns="http://www.w3.org/2000/svg" xmlns:xlink="http://www.w3.org/1999/xlink" x="0px" y="0px"
	 viewBox="0 0 791.47 272.48" style="enable-background:new 0 0 791.47 272.48;" xml:space="preserve">
<g>
	<g>
		<g transform="translate(0.535296, 163.000136)">
			<g>
				<path d="M74.61-53.56H73.9c-14.1,6.57-27.8,9.85-41.1,9.85c-20.82,0-31.85-8.21-33.1-24.65c-0.16-1.09-0.23-2.11-0.23-3.06
					c0-12.05,7.9-20.11,23.71-24.19c9.39-2.03,26.3-4.45,50.73-7.27v-20.67c0-6.57-0.79-12.2-2.35-16.9
					c-1.57-4.71-3.29-8.19-5.17-10.46c-1.88-2.28-4.3-4.04-7.27-5.29c-3.77-1.55-7.96-2.33-12.58-2.33c-4.61,0-9.89,1.18-15.83,3.52
					c-8.61,3.6-16.29,8.14-23.02,13.6l-0.94,18.31l-4.46,1.19v-28.42l2.35-0.94c12.21-5.32,21.52-8.53,27.94-9.62
					c6.42-1.09,11.11-1.68,14.08-1.75c2.97-0.08,5.82-0.05,8.56,0.1c2.75,0.16,6.31,0.86,10.69,2.12c4.39,1.25,8.19,3.01,11.4,5.27
					c3.21,2.27,5.98,5.67,8.33,10.21c2.34,4.54,3.52,9.95,3.52,16.21v71.85c0,4.85,1.26,7.27,3.77,7.27l14.31,0.71l-0.23,3.52
					c-8.77,1.25-16.59,1.88-23.48,1.88c-1.88-0.16-3.83-1.12-5.88-2.92C75.62-48.2,74.61-50.59,74.61-53.56z M37.03-47.46
					c11.58,0,23.88-4.07,36.88-12.21v-38.75c-23.49,0.78-38.24,2.15-44.27,4.1c-6.03,1.96-10.18,5.02-12.46,9.17
					c-2.27,4.14-3.4,8.24-3.4,12.31c0,0.79,0,1.58,0,2.35c0.47,8.14,2.9,14.02,7.27,17.62C25.43-49.26,30.76-47.46,37.03-47.46z"/>
			</g>
		</g>
	</g>
	<g>
		<g transform="translate(95.445892, 163.000136)">
			<g>
				<path d="M164-162.04c0,0.16,0.07,1.33,0.23,3.52l-18.77,2.1L100.37-44.65H86.29l-40.88-109.9c-0.93-1.4-2.1-2.26-3.52-2.58
					l-12.21-1.17l-0.23-3.52L79-162.04c0,0.16,0.07,1.33,0.23,3.52l-17.38,1.17L98.73-49.58l38.5-104.02
					c0.47-0.78,0.2-1.52-0.81-2.23c-1.02-0.71-2.07-1.14-3.17-1.29l-12.21-1.17l-0.25-3.52L164-162.04z"/>
			</g>
		</g>
	</g>
	<g>
		<g transform="translate(203.915135, 163.000136)">
			<g>
				<path d="M83.7-98.65c0,33.81,13.15,50.71,39.44,50.71c6.89,0,14.24-0.74,22.06-2.23c7.83-1.48,12.84-2.85,15.04-4.1l1.65,2.35
					c-3.6,2.35-9.51,4.31-17.73,5.88c-8.22,1.55-15.74,2.33-22.54,2.33c-6.81,0-12.91-0.7-18.31-2.1
					c-5.41-1.42-10.93-3.92-16.56-7.52c-5.62-3.59-10.08-9.23-13.38-16.9c-3.29-7.68-4.94-17.07-4.94-28.19
					c0-20.67,5.32-36.48,15.98-47.44C95.51-157.28,108.42-163,123.13-163c14.72,0,25.96,4.08,33.71,12.23
					c7.75,8.14,11.63,19.56,11.63,34.27c0,3.12-0.24,6.49-0.71,10.1H83.92C83.77-104.67,83.7-102.09,83.7-98.65z M154.61-118.15
					c0-11.73-2.58-21.32-7.75-28.75c-5.17-7.44-12.22-11.17-21.15-11.17c-11.58,0-21.37,5.09-29.35,15.27
					c-6.42,7.99-10.41,18.64-11.96,31.94h69.96C154.53-112.57,154.61-115.01,154.61-118.15z"/>
			</g>
		</g>
	</g>
	<g>
		<g transform="translate(293.014878, 163.000136)">
			<g>
				<path d="M100.48-44.42l0.23-3.29l12.21-1.62c1.42-0.17,2.12-1.26,2.12-3.29v-101.69c-0.32-1.25-0.79-1.88-1.42-1.88l-14.31-0.46
					l0.23-3.29c9.86-1.4,16.51-2.1,19.96-2.1c6.26,0,9.78,2.74,10.56,8.21h0.23v4.94c12.84-8.76,25.14-13.38,36.88-13.85
					c11.43,0,20.11,2.27,26.06,6.81c2.67,2.03,5.05,5.2,7.17,9.5c2.11,4.31,3.17,9.43,3.17,15.38v81.73l17.6,1.17
					c0,0.16-0.08,1.33-0.23,3.52l-46.96,0.23c0-1.4,0.07-2.5,0.23-3.29l12.21-1.62c1.25-0.17,1.88-1.26,1.88-3.29v-72.56
					c0-6.26-0.82-11.58-2.46-15.96c-1.64-4.39-3.48-7.59-5.52-9.62c-2.03-2.04-4.54-3.61-7.52-4.71c-3.45-1.25-7.04-1.88-10.79-1.88
					c-9.39,0.16-19.96,3.83-31.71,11.04v96.98l17.62,1.17c0,0.16-0.08,1.33-0.25,3.52L100.48-44.42z"/>
			</g>
		</g>
	</g>
	<g>
		<g transform="translate(403.949339, 163.000136)">
			<g>
				<path d="M138.87-158.29l-0.25-3.52l31.71-0.23v81.71c0,6.1,0.86,11.39,2.58,15.85c1.72,4.46,3.64,7.71,5.75,9.75
					c2.11,2.03,4.57,3.59,7.4,4.69c4.39,1.56,8.07,2.18,11.04,1.88c9.54-0.15,20.42-5.08,32.62-14.79v-90.88
					c-0.62-1.88-1.95-2.97-3.98-3.29l-12.21-1.17c-0.17-0.94-0.25-2.11-0.25-3.52l31.71-0.23v106.6c0.32,3.91,1.57,5.85,3.75,5.85
					l14.1,0.71l-0.25,3.52c-7.52,1.25-15.34,1.88-23.48,1.88c-1.88-0.16-3.91-1.21-6.1-3.17c-2.2-1.96-3.29-4.42-3.29-7.4v-4.23
					c-14.24,9.56-27.7,14.33-40.38,14.33c-5.32,0-11.58-1.33-18.79-4c-4.7-1.72-8.45-4.96-11.27-9.73
					c-2.82-4.78-4.23-10.77-4.23-17.98v-77.96c0-0.78-0.43-1.52-1.29-2.23c-0.86-0.71-1.76-1.14-2.69-1.29L138.87-158.29z"/>
			</g>
		</g>
	</g>
	<g>
		<g transform="translate(518.229438, 163.000136)">
			<g>
				<path d="M188.47-98.65c0,33.81,13.15,50.71,39.44,50.71c6.89,0,14.24-0.74,22.06-2.23c7.83-1.48,12.84-2.85,15.04-4.1l1.65,2.35
					c-3.6,2.35-9.51,4.31-17.73,5.88c-8.22,1.55-15.74,2.33-22.54,2.33c-6.81,0-12.91-0.7-18.31-2.1
					c-5.41-1.42-10.93-3.92-16.56-7.52c-5.62-3.59-10.08-9.23-13.38-16.9c-3.29-7.68-4.94-17.07-4.94-28.19
					c0-20.67,5.32-36.48,15.98-47.44C200.28-157.28,213.2-163,227.9-163c14.72,0,25.96,4.08,33.71,12.23
					c7.75,8.14,11.62,19.56,11.62,34.27c0,3.12-0.24,6.49-0.71,10.1H188.7C188.54-104.67,188.47-102.09,188.47-98.65z
					 M259.38-118.15c0-11.73-2.58-21.32-7.75-28.75c-5.17-7.44-12.22-11.17-21.15-11.17c-11.58,0-21.37,5.09-29.35,15.27
					c-6.42,7.99-10.41,18.64-11.96,31.94h69.96C259.3-112.57,259.38-115.01,259.38-118.15z"/>
			</g>
		</g>
	</g>
	<g>
		<g transform="translate(0.535296, 277.888704)">
			<g>
				<path d="M55.46-5.41c-16.36,0-29.59-4.69-39.69-14.08C5.68-28.88,0.63-43.25,0.63-62.58s5.36-34.52,16.08-45.56
					c10.72-11.04,24.22-16.56,40.5-16.56c16.29,0,29.52,4.7,39.69,14.1c10.18,9.39,15.27,23.75,15.27,43.08S106.81-33,96.09-21.95
					C85.37-10.92,71.82-5.41,55.46-5.41z M56.99-120.47c-11.74,0-21.52,5.09-29.35,15.27c-7.82,10.18-11.73,24-11.73,41.46
					c0,17.45,3.71,30.83,11.15,40.15c7.44,9.31,17.03,13.96,28.77,13.96c11.73,0,21.51-5.08,29.33-15.25
					C92.99-35.07,96.9-48.85,96.9-66.22s-3.72-30.76-11.15-40.15C78.32-115.77,68.74-120.47,56.99-120.47z"/>
			</g>
		</g>
	</g>
	<g>
		<g transform="translate(100.024153, 277.888704)">
			<g>
				<path d="M36.15-6.12l0.23-3.29l12.21-1.62c1.42-0.17,2.12-1.26,2.12-3.29v-101.69c-0.32-1.25-0.79-1.88-1.42-1.88l-14.31-0.46
					l0.23-3.29c9.86-1.4,16.51-2.1,19.96-2.1c6.26,0,9.78,2.74,10.56,8.21h0.23v4.94c12.84-8.76,25.14-13.38,36.88-13.85
					c11.43,0,20.11,2.27,26.06,6.81c2.67,2.03,5.05,5.2,7.17,9.5c2.11,4.31,3.17,9.43,3.17,15.38v81.73l17.6,1.17
					c0,0.16-0.08,1.33-0.23,3.52l-46.96,0.23c0-1.4,0.07-2.5,0.23-3.29l12.21-1.62c1.25-0.17,1.88-1.26,1.88-3.29v-72.56
					c0-6.26-0.82-11.58-2.46-15.96c-1.64-4.39-3.48-7.59-5.52-9.62c-2.03-2.04-4.54-3.61-7.52-4.71c-3.45-1.25-7.04-1.88-10.79-1.88
					c-9.39,0.16-19.96,3.83-31.71,11.04v96.98l17.62,1.17c0,0.16-0.08,1.33-0.25,3.52L36.15-6.12z"/>
			</g>
		</g>
	</g>
	<g>
		<g transform="translate(210.958615, 277.888704)">
			<g>
				<path d="M86.04-60.35c0,33.81,13.15,50.71,39.44,50.71c6.89,0,14.24-0.74,22.06-2.23c7.83-1.48,12.84-2.85,15.04-4.1l1.65,2.35
					c-3.6,2.35-9.51,4.31-17.73,5.88c-8.22,1.55-15.74,2.33-22.54,2.33c-6.81,0-12.91-0.7-18.31-2.1
					c-5.41-1.42-10.93-3.92-16.56-7.52c-5.62-3.59-10.08-9.23-13.38-16.9c-3.29-7.68-4.94-17.07-4.94-28.19
					c0-20.67,5.32-36.48,15.98-47.44c11.11-11.43,24.02-17.15,38.73-17.15c14.72,0,25.96,4.08,33.71,12.23
					c7.75,8.14,11.62,19.56,11.62,34.27c0,3.12-0.24,6.49-0.71,10.1H86.27C86.12-66.38,86.04-63.79,86.04-60.35z M156.96-79.85
					c0-11.73-2.58-21.32-7.75-28.75c-5.17-7.44-12.22-11.17-21.15-11.17c-11.58,0-21.37,5.09-29.35,15.27
					c-6.42,7.99-10.41,18.64-11.96,31.94h69.96C156.88-74.28,156.96-76.71,156.96-79.85z"/>
			</g>
		</g>
	</g>
</g>
</svg>
